<?xml version="1.0" encoding="UTF-8"?> <!-- Creator: CorelDRAW 2018 (64-Bit) --> <svg xmlns="http://www.w3.org/2000/svg" xmlns:xlink="http://www.w3.org/1999/xlink" xml:space="preserve" width="3508px" height="2480px" style="shape-rendering:geometricPrecision; text-rendering:geometricPrecision; image-rendering:optimizeQuality; fill-rule:evenodd; clip-rule:evenodd" viewBox="0 0 3508 2480.4"> <defs> <style type="text/css"> <![CDATA[ .fil0 {fill:#00A046} .fil1 {fill:#221F1F} ]]> </style> </defs> <g id="Слой_x0020_1"> <metadata id="CorelCorpID_0Corel-Layer"></metadata> <g id="_1845384165376"> <path class="fil0" d="M1530.54 972.09c194.39,0 419.09,-70.75 582.17,-161.45 27.38,-15.23 52.98,-29.2 79.01,-44.96l77.03 -47.99c-6.35,37.29 -67.42,209.66 -80.58,244.46 -64.11,169.39 -223.7,545 -423.61,545 -80.33,0 -158.15,-37.2 -209.24,-73.3 -62.94,-44.47 -91.9,-75.09 -144.88,-135.15 -36.38,-41.24 -86.94,-119.87 -112.4,-167.54 -27.54,-51.57 -68.08,-140.72 -68.92,-210.58 20.24,1.49 102.61,51.51 301.42,51.51zm80.27 -194.28c12.89,-19.07 45.59,-55.01 63.84,-71.13 7.54,-6.65 14.79,-14.1 23.06,-20.94 62.38,-51.5 149.6,-114.47 237.88,-122.33 135.16,-12.05 105.76,131.06 55.25,203.4 4.88,-38.45 19.43,-88.71 -35.44,-121.06 -39.23,-23.13 -98.99,-12.29 -140.81,0.81 -83.2,26.07 -159.52,86.97 -203.78,131.25zm-319.29 -87.26c0,-40.58 7.47,-79.75 19.65,-115.33 18.24,-53.29 64.13,-134.04 127.82,-136.13 111.71,-3.68 135.4,237.25 34.44,364.41 -19.66,24.77 -46.75,50.58 -88.91,50.58 -68.82,0 -93,-102.86 -93,-163.53zm452.18 -213.41c12.5,-25.2 62.89,-70.34 85.72,-87.74 74.11,-56.5 172.58,-89.89 233.91,0.41 17.17,25.28 42.71,88.08 44.52,126.09 -39.94,-55.29 -88.08,-89.25 -161.63,-94.55 -55.77,-4.01 -111.45,10.46 -159.63,33.19 -14.08,6.64 -30.5,18.2 -42.89,22.6zm-194.04 -259.4c3.96,12.07 11.08,24.84 15.95,37.69 13.42,35.38 28.53,95.02 31.05,131.58 -7.97,-7.71 -14.87,-24.88 -28.14,-38.51 -105.86,-108.7 -220.73,-37.63 -305.3,52.73l-41.38 46.62c-12.63,15.88 -26.17,33.72 -37.88,52.1 -156.44,245.67 -150.3,569.16 33.1,808.11 53.43,69.6 106.13,117.89 186.11,169.93 150.68,98.06 372.55,138.23 574.28,77.55 480.82,-144.64 657.99,-730.06 343.71,-1115.53 -52.39,-64.25 -111,-115.39 -192.15,-163.94 -123.98,-74.18 -282.9,-108.03 -433.49,-90.45 -81.6,9.52 -91.21,21.19 -145.86,32.12z"></path> <path class="fil1" d="M1572.48 1420.64c12.45,-25.11 48.36,-61.65 67.61,-76.46 28.44,-21.87 52.02,-37.56 88.88,-55.21 93.9,-44.97 198.07,-53.82 304.64,-49.12 0.9,8.31 -28.66,52.35 -34.38,61.35 -24.93,39.2 -53.14,76.44 -85.39,108.7 -17.27,17.27 -30.74,28.44 -52.4,43.66 -81.59,57.29 -178.2,31.81 -260.18,-13.62 -10.06,-5.57 -22.78,-11.59 -28.78,-19.3zm-41.94 -448.55c-198.81,0 -281.18,-50.02 -301.42,-51.51 0.84,69.86 41.38,159.01 68.92,210.58 25.46,47.67 76.02,126.3 112.4,167.54 52.98,60.06 81.94,90.68 144.88,135.15 51.09,36.1 128.91,73.3 209.24,73.3 199.91,0 359.5,-375.61 423.61,-545 13.16,-34.8 74.23,-207.17 80.58,-244.46l-77.03 47.99c-26.03,15.76 -51.63,29.73 -79.01,44.96 -163.08,90.7 -387.78,161.45 -582.17,161.45z"></path> <path class="fil1" d="M1549.66 217.74c54.65,-10.93 64.26,-22.6 145.86,-32.12 150.59,-17.58 309.51,16.27 433.49,90.45 81.15,48.55 139.76,99.69 192.15,163.94 314.28,385.47 137.11,970.89 -343.71,1115.53 -201.73,60.68 -423.6,20.51 -574.28,-77.55 -79.98,-52.04 -132.68,-100.33 -186.11,-169.93 -183.4,-238.95 -189.54,-562.44 -33.1,-808.11 11.71,-18.38 25.25,-36.22 37.88,-52.1l41.38 -46.62c84.57,-90.36 199.44,-161.43 305.3,-52.73 13.27,13.63 20.17,30.8 28.14,38.51 -2.52,-36.56 -17.63,-96.2 -31.05,-131.58 -4.87,-12.85 -11.99,-25.62 -15.95,-37.69zm-497.18 664.84c0,136.77 36.42,250.34 92.7,353.35 10.63,19.47 22.08,37.59 34.5,55.51 18.5,26.71 56.77,74.37 81.32,98.7 130.46,129.3 309.84,214.52 501.56,214.52 120.72,0 210.33,-19.03 316.02,-66.03 51.89,-23.08 94.2,-51.19 138.04,-83.98 25.13,-18.8 60.88,-50.96 82.55,-73.47 4.75,-4.94 5.44,-7.22 9.93,-12.07 3.88,-4.18 7.24,-6.64 10.94,-11.07 4.31,-5.15 5.4,-6.87 10.09,-11.91 7.18,-7.71 12.63,-16.07 19.35,-24.66 143.93,-183.86 190.67,-450.39 109.42,-675.18 -15.21,-42.1 -33.79,-85.67 -56.62,-123.39 -11.62,-19.2 -21.79,-37.19 -35.08,-54.94 -6.92,-9.23 -11.78,-16.33 -18.84,-25.16 -7.13,-8.92 -12.76,-16.75 -20.33,-25.68 -23.71,-28 -50.62,-53.9 -77.89,-78.13 -43.16,-38.35 -70.47,-55.44 -117.91,-84.11l-59.66 -30.36c-209.32,-93.54 -455.35,-83.6 -652.15,29.88 -81.74,47.12 -111.52,75.45 -176.43,139.61l-21.5 24.51c-6.36,8.23 -13.17,15.53 -19.72,24.28 -24.74,33.07 -52.3,74.27 -70.98,111.04 -50.14,98.72 -79.31,215.38 -79.31,328.74z"></path> <path class="fil1" d="M948.47 2038.72c0,-65.22 43.97,-78.01 106.01,-78.01 58.26,0 94.01,21.98 94.01,78.01 0,54.1 -45.56,72.01 -100.01,72.01 -54.6,0 -100.01,-17.81 -100.01,-72.01zm122.7 148.01l-47.33 0c-46.87,-2.84 -91.5,-14.21 -121.01,-34.37 -16.21,-11.08 -30.6,-24.84 -40.32,-41.69 -17.9,-31.04 -18.06,-52.13 -18.06,-85.96 0,-76.52 59.93,-118.78 124.85,-133.18 20.54,-4.55 55.64,-7.64 77.35,-8.79 9.2,-0.49 9.75,1.74 19.77,2.02 61.46,1.73 129.39,16.61 165.31,70.72 28.02,42.21 27.85,111.73 2.71,155.18 -10.08,17.41 -23.43,30.39 -40.34,41.68 -29.92,19.97 -75.37,31.52 -122.93,34.39z"></path> <path class="fil1" d="M678.43 2032.72l-98.01 0 0 -72.01 102.01 0c45.14,0 42.64,72.01 -4,72.01zm-196.02 142.01c0,4.61 1.39,6 6,6l92.01 0 0 -82.01c84.13,0 51.97,-7.01 91.51,34.51l32.19 37.82c11.24,14.55 21.99,9.68 58.32,9.68 23.34,0 46.67,0 70.01,0 -2.23,-8.36 -48.6,-59.52 -58.6,-71.41 -5.26,-6.25 -17.26,-16.57 -19.41,-24.6 28.94,-6.74 62.01,-48.17 62.01,-94.01 0,-34.09 -17.03,-59.73 -37.1,-74.91 -19.96,-15.1 -53.03,-25.1 -86.92,-25.1l-210.02 0 0 284.03z"></path> <path class="fil0" d="M1572.48 1420.64c6,7.71 18.72,13.73 28.78,19.3 81.98,45.43 178.59,70.91 260.18,13.62 21.66,-15.22 35.13,-26.39 52.4,-43.66 32.25,-32.26 60.46,-69.5 85.39,-108.7 5.72,-9 35.28,-53.04 34.38,-61.35 -106.57,-4.7 -210.74,4.15 -304.64,49.12 -36.86,17.65 -60.44,33.34 -88.88,55.21 -19.25,14.81 -55.16,51.35 -67.61,76.46z"></path> <path class="fil1" d="M1628.55 1896.7l0 278.03c0,4.61 1.39,6 6,6l290.03 0c4.61,0 6,-1.39 6,-6l0 -68 -204.02 0 0 -42.01 168.02 0 0 -54.01c0,-4.61 -1.39,-6 -6,-6l-162.02 0 0 -40 196.02 0 0 -74.01 -288.03 0c-4.61,0 -6,1.39 -6,6z"></path> <path class="fil1" d="M1270.5 1966.71l168.02 0c-6.43,9.6 -13.53,12.53 -21.54,20.46l-52.94 51.07c-4.86,4.49 -7.13,5.19 -12.07,9.94 -7.42,7.14 -13.39,14.35 -20.97,21.03 -9.64,8.48 -64.5,57.14 -64.5,63.52 0,28.25 -4.3,48 6,48l312.04 0c4.61,0 6,-1.39 6,-6l0 -70.01 -170.02 0c8.66,-12.92 30.27,-29.1 41.52,-40.48 7.42,-7.5 13.47,-13.66 20.95,-21.06l85.85 -80.18c26.12,-20.84 19.7,-20.18 19.7,-72.3l-318.04 0 0 76.01z"></path> <path class="fil1" d="M2324.63 2180.73l92.01 0c9.71,0 6,-18.87 6,-38 0,-14.67 0,-29.34 0,-44.01 8,-5.35 9.47,-7.36 16.6,-13.4l17.41 -14.6c7.29,4.88 34.88,43.84 42.29,53.72 13.99,18.65 28.94,37.22 41.72,56.29l120.01 0c-0.73,-8.79 -6.65,-12.68 -14.86,-23.13 -6.03,-7.67 -10.65,-14.01 -16.68,-21.34l-91.6 -116.42c-3.77,-5.01 -5.94,-6.74 -8.87,-11.13l104.48 -87.54c6.12,-5.46 11.2,-9.42 17.03,-14.97 6.17,-5.88 11.88,-8.6 16.5,-15.5 -28.67,0 -57.34,0 -86.01,0 -47.52,0 -30.06,-9.73 -76.49,31.52 -4.84,4.3 -6.36,6.54 -11.52,10.48l-70.01 62.01 0 -104.01 -98.01 0 0 290.03z"></path> <path class="fil1" d="M2868.7 1960.71c6.17,7.09 27.99,65.62 32.85,77.16 3.75,8.95 7.33,18.87 11.15,26.85l-86.01 0 21.15 -50.86c5.65,-14.18 18.04,-41.05 20.86,-53.15zm-192.03 220.02l98.02 0c6.86,0 10.51,-14.17 15.43,-26.57 4.21,-10.59 7.71,-20.25 12.57,-29.43l136.02 0c0.69,8.34 12.41,33.36 16.52,43.48 2.38,5.87 2.68,12.52 9.48,12.52l98.01 0c10.1,0 2.66,-8.5 0.08,-14l-50.76 -109.33c-3.63,-7.15 -5.17,-12.17 -8.63,-19.38l-68.7 -147.32 -130.02 0c-1.7,7.28 -5.22,11.87 -7.97,18.03l-119.4 256.68c-3.22,6.19 -10.71,15.32 -0.65,15.32z"></path> <path class="fil0" d="M1420.52 592.54c31.25,-62.37 100.39,-18.96 68.28,72.27 -26.58,75.53 -94.82,67.01 -85.4,-23.88 14.97,-3.49 23.71,-4.53 27.86,-17.64 5.05,-15.95 -4.71,-24.6 -10.74,-30.75zm4.49 -134.51c-61.08,16.74 -101.47,106.97 -112.66,184.28 -6.3,43.5 -5.02,91.81 8.65,131.74 43.21,126.17 170.09,54.38 196.17,-123.03 6.49,-44.14 4.91,-91.82 -8.95,-132.18 -11.02,-32.08 -38.03,-73.2 -83.21,-60.81z"></path> <path class="fil1" d="M1952.59 1966.71l120.01 0 0 214.02 94.01 0c4.61,0 6,-1.39 6,-6l0 -208.02 118.02 0 0 -76.01 -338.04 0 0 76.01z"></path> <path class="fil1" d="M1743.7 477.14c12.39,-4.4 28.81,-15.96 42.89,-22.6 48.18,-22.73 103.86,-37.2 159.63,-33.19 73.55,5.3 121.69,39.26 161.63,94.55 -1.81,-38.01 -27.35,-100.81 -44.52,-126.09 -61.33,-90.3 -159.8,-56.91 -233.91,-0.41 -22.83,17.4 -73.22,62.54 -85.72,87.74z"></path> <path class="fil1" d="M1610.81 777.81c44.26,-44.28 120.58,-105.18 203.78,-131.25 41.82,-13.1 101.58,-23.94 140.81,-0.81 54.87,32.35 40.32,82.61 35.44,121.06 50.51,-72.34 79.91,-215.45 -55.25,-203.4 -88.28,7.86 -175.5,70.83 -237.88,122.33 -8.27,6.84 -15.52,14.29 -23.06,20.94 -18.25,16.12 -50.95,52.06 -63.84,71.13z"></path> <path class="fil1" d="M1425.01 458.03c45.18,-12.39 72.19,28.73 83.21,60.81 13.86,40.36 15.44,88.04 8.95,132.18 -26.08,177.41 -152.96,249.2 -196.17,123.03 -13.67,-39.93 -14.95,-88.24 -8.65,-131.74 11.19,-77.31 51.58,-167.54 112.66,-184.28zm-133.49 232.52c0,60.67 24.18,163.53 93,163.53 42.16,0 69.25,-25.81 88.91,-50.58 100.96,-127.16 77.27,-368.09 -34.44,-364.41 -63.69,2.09 -109.58,82.84 -127.82,136.13 -12.18,35.58 -19.65,74.75 -19.65,115.33z"></path> <path class="fil1" d="M1420.52 592.54c6.03,6.15 15.79,14.8 10.74,30.75 -4.15,13.11 -12.89,14.15 -27.86,17.64 -9.42,90.89 58.82,99.41 85.4,23.88 32.11,-91.23 -37.03,-134.64 -68.28,-72.27z"></path> </g> </g> </svg> 